<?xml version="1.0" encoding="UTF-8"?>
<svg id="Layer_1" xmlns="http://www.w3.org/2000/svg" version="1.1" viewBox="0 0 1013.46 394.23">
  <!-- Generator: Adobe Illustrator 29.0.0, SVG Export Plug-In . SVG Version: 2.1.0 Build 186)  -->
  <defs>
    <style>
      .st0 {
        fill: #dec9b2;
      }

      .st1 {
        fill: #ddc9b3;
      }

      .st2 {
        fill: #f4941f;
      }

      .st3 {
        fill: #8c9774;
      }

      .st4 {
        fill: #644e28;
      }
    </style>
  </defs>
  <path class="st0" d="M221.87,165.38c.1.46,2.22,3.45,2.73,3.94,6.34,6.1,19.82,2.44,26.06-2.44,3.62-2.83,11.65-14.01,14.56-14.56,1.22-.23.81.16.92.91,1.35,9.55-5.03,11.59,7.29,16.39,3.26,1.27,7.48,2.76,10.93,1.85,5.46-1.44,11.09-13.55,15.44-17.32.96-.83,2.04-1.34,3.34-1.2.58.62-1.24,8.35-1.26,10.01-.07,6.65,8.81,9.6,14.28,10.03,23.23,1.83,51.05-.31,74.6-.65,60.28-.87,122.96-1,182.42-11.68,3.25-.58,17.87-2.97,19-5.29,1.89-3.88-4.09-10.25-7.88-11.56-3.49-1.2-9.56-1.59-13.38-1.78-14.08-.73-28.43.36-42.43.63-49.34.95-98.69,3.32-148.03,1.8-9.35-.29-33.55.47-40.75-4.14-2.48-1.59-3.24-3.13-3.67-6.04-.89-6.14-.1-16.24,2.77-21.79,7.52-14.52,49.76-29.45,65.13-36.79,5.05-2.41,9.86-5.55,15.03-7.71-1.4,12.64-4.2,15.71-14.94,21.15-12.35,6.26-55.05,22.32-61.47,31.34-4.01,5.64,7.28,6.68,11.22,6.97,37.02,2.76,75.68.35,112.79-.02,35.44-.35,72.07-1.83,107.36.05,12.81.68,26.99-.64,31.43,14.68,3.09,10.65,3.88,35.12,4.11,46.87.26,13.62-1.95,14.33-14.33,17.89-12.87,3.69-27.97,5.96-41.29,7.85-58.16,8.27-117.87,10.45-176.44,11.59-20.51.4-49.95,2.98-69.66-.65-6.77-1.25-6.79-3.81-11.33-6.87-6.18-4.17-7.98,1.74-12.88,4.63-7.35,4.34-14.18,2.39-21.23-1.45-2.24-1.22-4.78-4.21-7.41-4.17-1.45.02-9.63,5.72-12.7,6.75-6.5,2.18-16.27,3.1-22.12-.97-2.35-1.63-6.78-8.79-8.23-8.78-.68,0-9.42,6.42-11.41,7.42-12.72,6.38-32.87,7.33-44.38-1.95-1.3-1.05-6.2-6.8-7.21-6.62-8.75,10.02-23.39,14.48-36.47,13.3-15.51-1.4-17.42-17.54-20.94-29.72l-3.93,6.07c-6.99,8.45-21.81,10.32-32.15,9.7s-11.19-2.68-12.87-12.01-1.79-19.01.88-28.5c5.57-19.84,24.29-30.28,41.72-38.37,1.09-9.51-3.06-19.36,6.05-26.1.99.73.97,1.94,1.23,3,2.64,10.73,3.63,21.99,6.04,32.8,1.52,6.8,4.63,22.91,10.42,26.6,5.65,3.61,20.46,2.06,26.7-.4,2.55-1.01,6.45-2.6,6.23-5.79-.65-9.5-9.9-25.06-.26-33.15,1.07-.9,3.23-2.89,4.07-1.07,1.42,3.1,2.23,8.13,3.49,11.68,2.95,8.33,6.88,20.01,14.01,25.43,12.92,9.82,36.94,5.8,48.48-4.8,2.2-2.02,5.79-7.97,8.78-7.62.53.06,1.52.56,1.52.94,0,2.53-.46,7.62,0,9.71ZM88.38,146.32c-1.15-.97-11.02,3.44-12.91,4.28-3.3,1.46-8.3,3.81-11.26,5.73-.67.44-3.83,2.22-3.08,3.28.19.26,5.47,1.15,6.38,1.21,3.67.25,10.14-.2,13.86-.68,1.75-.22,6.02-.84,7.3-1.8,2.43-1.8.13-9.2-.3-12.03Z"/>
  <path class="st1" d="M521.5,343.51c-.32-1.97.56-3.82.63-5.74.91-25.21.91-51.31,0-76.52-.06-1.73-.85-3.37-.63-5.13,6.93.58,13.7.59,20.63,0l-.61,35.81h38.82l-.61-35.81c6.93.59,13.7.59,20.63,0v87.4h-20.63l.61-41.88h-38.82l.61,41.88h-20.62Z"/>
  <path class="st1" d="M275.24,343.51v-87.4c6.7.71,13.32.71,20.02,0l-.61,35.81h38.82l-.61-35.81c6.91.66,13.71.66,20.63,0-.9,9.2-.39,18.41-.58,27.64-.03,1.6-.64,3.07-.66,4.8-.25,18.36.6,36.65,1.24,54.95h-19.11c-.2,0-1.29,1.21-1.52.3l.61-42.18h-38.82l.61,41.88h-20.02Z"/>
  <path class="st1" d="M45.36,343.51v-87.4c6.92.73,13.7.52,20.63,0l-.91,39.46c2.52-1.34,4.49-4.19,6.35-6.39,9-10.66,17.17-22.1,25.79-33.06h14.25l-31.53,36.7,33.96,50.69h-20.93c-.55,0-2.02,1.51-3.03,0-8.12-12.77-15.58-26.05-24.57-38.23l.6,38.24h-20.62Z"/>
  <path class="st1" d="M197,343.51h-22.44l-7.98-24.79c-9.8-1.67-19.78.2-29.66.19l-9.08,25.22c-.61.23-1.27-.61-1.51-.61h-10.61l36.67-87.44c2.47.52,8.55-1,9.98,1l34.63,86.43ZM140.59,310.74h22.44l-11.22-30.35-11.23,30.35Z"/>
  <path class="st1" d="M508.16,343.51h-20.32c-.19,0-.66.66-1.14.55-1.31-.24-7.26-21.98-9.15-24.85-2.37-2.33-24.97-1.04-29.45-.3l-9.39,24.59h-11.83l36.75-87.9c2.2,1.19,8.44-.34,9.65,1.11l34.87,86.79ZM451.75,310.74h22.44l-11.22-30.35-11.23,30.35Z"/>
  <path class="st1" d="M207.92,324.1c.13-.13,3.22-.14,3.55.07.3.19,1.85,5.12,2.85,6.55,9.76,13.91,35.03,6.36,28.46-10.87-4.78-12.54-34.78-12.77-37.23-33.76-2.76-23.62,17.36-35.62,38.78-30.91,2.11.47,11.54,3.84,11.41,5.97-.08,1.4-2.38,8.92-2.97,11.02-1.58,5.68-4.94-2.71-5.77-3.88-8.29-11.74-31.31-5.81-25.77,10,4.08,11.65,31.23,12.46,37.05,29.69,2.6,7.71,1.51,18.54-3.4,25.17-10.75,14.51-35.19,15.83-49.74,6.72.95-2.09,2.21-15.21,2.78-15.77Z"/>
  <path class="st1" d="M431.73,256.11v10.92l-20.93-1.87c-.92.03-1.75.09-2.03,1.05l1.13,77.29h-21.23l1.13-77.3-.91-.91-22.66,1.73c.51-3.83.88-7.08,0-10.92h65.51Z"/>
  <path class="st1" d="M367.43,56.45l-3.19,19.26c-15.22,6.06-28.82,15.44-43.51,22.61,1.02-5.41,1.2-12.6,2.56-17.76.2-.76.47-1.43,1.11-1.93,14.5-7.06,28.06-16.13,43.03-22.18Z"/>
  <path class="st1" d="M151.28,82.58c.52-.16,1-.05,1.44.26l12.7,11.02c.14.78-9.16,10.47-10.66,11.69-1.16.2-11.92-9.53-13.86-10.85l-10.4,11.46c-1.35.23-11.39-9.43-13.55-10.6-.18-.78,9.33-12.14,10.11-12.34.51-.13.96-.09,1.4.23l12.45,10.61c2.26-1.05,9.37-11.16,10.39-11.47Z"/>
  <path class="st1" d="M272.6,104.43c.89-.15,12.25,9.51,13.52,11.27.13.76-9.26,11.47-10.09,11.69-.51.13-.95.1-1.38-.22l-12.45-10.63-9.36,10.65c-.55.63-1.15,1.04-2.04.8s-12.28-9.83-12.5-10.67c-.29-1.11,1.6-3.09,2.38-4.11.84-1.09,6.97-8.01,7.56-8.06l13.97,10.63,10.39-11.34Z"/>
  <path class="st1" d="M261.68,81.37l13.57,11.2c.2.81-9.3,11.21-11.22,11.84-.84,0-12.78-9.9-12.95-10.73-.3-1.56,8.83-10.72,10.6-12.31Z"/>
  <path class="st3" d="M987.35,345.59c-.02-.78-.63-1.39-.63-1.47.01-1.08.62-2.41.64-3.92.85-98.41-.7-196.88-.03-295.29h-302.67v305.88h302.67c-.04-1.72.06-3.47.02-5.21ZM835.51,89.28l60.87,60.35-60.28,60.88-60.98-60.8,60.39-60.43ZM947.88,302.82c-37.31-9.05-74.2-19.89-111.34-29.66l-111.47,29.64-.87-.99-5.58-22.03,70.97-19.12-70.97-19.12,6.14-22.99c.85-.6,5.96.98,7.34,1.32,34.81,8.59,69.07,19.66,103.89,28.25,35-8.72,69.55-19.34,104.5-28.25,1.27-.32,6.7-1.92,7.37-1.34l5.48,23-70.35,19.14,70.97,19.12-6.09,23.03Z"/>
  <path class="st4" d="M947.87,218.53l5.48,23-70.35,19.14,70.97,19.12-6.09,23.03c-37.31-9.05-74.2-19.89-111.34-29.66l-111.47,29.64-.87-.99-5.58-22.03,70.97-19.12-70.97-19.12,6.14-22.99c.85-.6,5.96.98,7.34,1.32,34.81,8.59,69.07,19.66,103.89,28.25,35-8.72,69.55-19.34,104.5-28.25,1.27-.32,6.7-1.92,7.37-1.34Z"/>
  <polygon class="st2" points="835.51 89.28 896.38 149.63 836.1 210.51 775.13 149.71 835.51 89.28"/>
</svg>